<svg version="1.2" xmlns="http://www.w3.org/2000/svg" viewBox="0 0 4000 4000" width="4000" height="4000">
	<style>
		tspan { white-space:pre } 
		.s0 { fill: #035aa6 } 
		.t1 { font-size: 234px;fill: #035aa6;font-family: "Myriad Pro" } 
	</style>
	<g id="Layer 1">
		<g id="&lt;Group&gt;">
			<path id="&lt;Path&gt;" class="s0" d="m2459.58 1427.17h-48.59l-114.22-0.01 365.93 905.67h162.79z"/>
			<path id="&lt;Path&gt;" class="s0" d="m2682.09 1427.17h-48.59l-114.22-0.01 365.92 905.67h162.8z"/>
			<path id="&lt;Path&gt;" class="s0" d="m2204.33 1504.84l-58.48 144.76c48.01 40.66 83.19 96.03 98.52 159.08q0.31 1.28 0.61 2.56 0.16 0.67 0.31 1.34 0.3 1.3 0.59 2.61 0.13 0.58 0.25 1.18 0.23 1.04 0.44 2.09 0.14 0.65 0.27 1.3 0.25 1.24 0.5 2.48 0.12 0.63 0.24 1.26 0.25 1.34 0.5 2.68 0.11 0.6 0.21 1.2 0.2 1.14 0.39 2.27 0.11 0.66 0.22 1.33 0.2 1.22 0.39 2.45 0.09 0.55 0.18 1.1 0.21 1.43 0.41 2.86 0.08 0.54 0.16 1.09 0.18 1.33 0.35 2.66 0.07 0.55 0.14 1.1 0.16 1.28 0.31 2.56 0.05 0.45 0.11 0.89 0.17 1.52 0.32 3.04 0.05 0.49 0.1 0.97 0.16 1.55 0.3 3.1 0.03 0.34 0.06 0.67 0.12 1.42 0.23 2.84 0.03 0.36 0.06 0.71 0.12 1.56 0.22 3.13l0.06 0.94q0.09 1.56 0.18 3.12 0.02 0.42 0.04 0.84 0.07 1.49 0.13 2.99 0.01 0.21 0.02 0.41 0.06 1.64 0.1 3.28l0.02 0.87q0.04 1.61 0.06 3.22 0.01 0.38 0.01 0.76 0.02 1.62 0.02 3.25 0 0.09 0.01 0.18-0.01 0.65-0.01 1.31-0.01 1.25-0.02 2.5-0.01 0.78-0.03 1.57-0.01 1.11-0.04 2.21-0.02 0.88-0.05 1.75-0.03 1.04-0.07 2.08-0.03 0.82-0.07 1.65-0.04 1.06-0.09 2.12-0.05 0.86-0.1 1.73-0.05 1.03-0.12 2.05-0.05 0.86-0.11 1.72-0.07 1.03-0.15 2.05-0.06 0.84-0.13 1.68-0.08 1.04-0.17 2.08-0.08 0.87-0.16 1.74-0.09 0.97-0.19 1.95-0.09 0.92-0.19 1.83-0.1 0.95-0.2 1.89-0.11 0.92-0.21 1.84-0.11 0.92-0.23 1.84-0.11 0.94-0.24 1.87-0.12 0.93-0.25 1.85-0.12 0.91-0.25 1.83-0.13 0.91-0.27 1.82-0.14 0.95-0.29 1.9-0.14 0.86-0.28 1.72-0.15 0.98-0.32 1.95-0.14 0.84-0.29 1.68-0.17 0.99-0.35 1.97-0.15 0.82-0.3 1.64-0.19 1-0.38 2-0.16 0.79-0.32 1.59-0.2 1.02-0.41 2.03-0.16 0.76-0.32 1.52-0.23 1.04-0.45 2.08-0.17 0.74-0.33 1.47-0.24 1.06-0.49 2.11-0.16 0.69-0.32 1.37-0.26 1.12-0.54 2.23-0.14 0.56-0.28 1.12-0.3 1.22-0.62 2.43-0.12 0.46-0.24 0.92-0.34 1.3-0.69 2.61-0.09 0.31-0.18 0.61-2.74 9.97-6.13 19.65-0.03 0.11-0.07 0.21-0.51 1.46-1.04 2.91-0.09 0.24-0.17 0.48-0.5 1.36-1.01 2.7-0.12 0.34-0.25 0.68-0.49 1.3-0.99 2.59-0.15 0.38-0.3 0.77-0.49 1.23-0.98 2.45-0.13 0.32-0.26 0.64l-126.48 313.07c174.39-63.01 299.37-230.21 299.37-426.06 0-155.92-79.21-293.68-199.5-375.17z"/>
			<path id="&lt;Path&gt;" class="s0" d="m1951 1427.18h-314.16c69.99 36.16 130.62 87.99 177.08 150.94h137.08c53.4 0 103.61 13.94 147.17 38.37l56.85-140.7c-61.35-31.09-130.68-48.61-204.02-48.61z"/>
			<path id="&lt;Path&gt;" class="s0" d="m1951.02 2181.89h-0.02-301.89v-56.6-245.29c0-101.83-62.39-189.35-150.94-226.39v679.23h452.83c28.98 0 57.34-2.74 84.82-7.97l57.76-142.98z"/>
			<path id="&lt;Path&gt;" class="s0" d="m1401.83 1427.17v150.95c60.15 0 116.2 17.75 163.32 48.19q6.2 4 12.18 8.29 12.74 9.13 24.45 19.5c4.58 4.06 9.08 8.21 13.42 12.54 4.33 4.33 8.47 8.83 12.53 13.41q10.37 11.71 19.5 24.45 4.29 5.98 8.29 12.18c30.44 47.12 48.2 103.17 48.2 163.32v245.29h78.66c45.67-70.7 72.28-154.86 72.28-245.29 0-250.09-202.74-452.83-452.83-452.83z"/>
			<path id="&lt;Path&gt;" class="s0" d="m1404.83 1578.11c-166.46 0-301.89 135.43-301.89 301.89 0 166.46 135.43 301.89 301.89 301.89v150.94c-250.09 0-452.83-202.74-452.83-452.83 0-250.09 202.74-452.83 452.83-452.83z"/>
		</g>
		<text id="Olm Design Agency
" style="transform: matrix(1,0,0,1,1035.466,2571.132)" >
			<tspan x="0" y="0" class="t1">Olm Design Agency
</tspan>
		</text>
	</g>
</svg>